# xmcd CD database file
#
# Track frame offsets:
#	187
#	33385
#	61925
#	81927
#	100810
#	124925
#
# Disc length: 2156 seconds
#
# Revision: 0
# Processed by: cddbd v1.5.1PL0 Copyright (c) Steve Scherf et al.
# Submitted via: CDex 1.51
#
DISCID=48086a06
DTITLE=Bill Evans with Philly Joe Jones - Green Dolphin Street
DYEAR=1959
DGENRE=Jazz
TTITLE0=You and the Night and the Music
TTITLE1=How Am I to Know?
TTITLE2=Woody'n You (take1)
TTITLE3=Woody'n You (take2)
TTITLE4=My Heart Stood Still
TTITLE5=Green Dolphin Street
EXTD=YEAR: 1959
EXTT0=
EXTT1=
EXTT2=
EXTT3=
EXTT4=
EXTT5=
PLAYORDER=
